<mxfile host="app.diagrams.net" modified="2023-11-14T11:11:58.736Z" agent="Mozilla/5.0 (Windows NT 10.0; Win64; x64) AppleWebKit/537.36 (KHTML, like Gecko) Chrome/119.0.0.0 Safari/537.36" version="22.1.0" etag="4uxDi_tnJgVQ9u885kko" type="github">
  <diagram name="PÃ¡gina-1" id="kqf7d28a6P8wFACynmq2">
    <mxGraphModel>
      <root>
        <mxCell id="0" />
        <mxCell id="1" parent="0" />
      </root>
    </mxGraphModel>
  </diagram>
</mxfile>
